<svg width="161" height="50" viewBox="0 0 161 50" fill="none" xmlns="http://www.w3.org/2000/svg">
    <g clip-path="url(#clip0_9155_11269)">
        <path d="M159.868 27.9513C159.868 29.7835 158.566 31.282 156.974 31.282H3.16912C1.57734 31.282 0.275391 29.7827 0.275391 27.9513V4.37743C0.275391 2.54447 1.57734 1.0459 3.16912 1.0459H156.974C158.565 1.0459 159.868 2.54447 159.868 4.37666V27.9505V27.9513Z" fill="#010101"/>
        <path d="M108.24 21.2222C109.512 21.2222 110.59 22.2826 110.59 23.5668C110.59 24.8509 109.512 25.9393 108.24 25.9393C106.968 25.9393 105.917 24.8788 105.917 23.5668C105.917 22.2548 106.968 21.2222 108.24 21.2222Z" fill="#F5F5F5"/>
        <path d="M19.7641 25.7722L19.3615 22.6497H16.2347L15.8322 25.7722H12.3503L15.7371 6.48975H19.8584L23.2459 25.7722H19.7641ZM17.7974 10.3353L16.6365 18.8344H18.9575L17.7966 10.3353H17.7974Z" fill="#F5F5F5"/>
        <path d="M24.6614 25.7724V6.49072H30.0854C32.9277 6.49072 34.0648 8.86088 34.0648 11.4052C34.0648 13.8048 33.0466 15.366 31.6013 15.8281C33.1884 16.1463 34.278 18.141 34.278 20.5406C34.278 23.4023 33.1647 25.7732 30.2748 25.7732H24.6614V25.7724ZM27.9415 14.2421H29.1055C30.0708 14.2421 30.4419 13.3961 30.4419 12.1274C30.4419 10.8587 30.0708 10.0429 29.1055 10.0429H27.9415V14.2421ZM27.9369 22.228H29.1998C30.1406 22.228 30.6605 21.382 30.6605 19.9624C30.6605 18.6937 30.1406 17.6967 29.1998 17.6967H27.9369V22.228Z" fill="#F5F5F5"/>
        <path d="M40.8928 6.17236C44.5878 6.17236 46.2463 10.3933 46.2463 16.1461C46.2463 21.8988 44.5885 26.1198 40.8928 26.1198C37.197 26.1198 35.5393 21.8988 35.5393 16.1461C35.5393 10.3933 37.197 6.17236 40.8928 6.17236ZM40.8928 10.0457C39.6376 10.0457 39.2113 12.5901 39.2113 16.1453C39.2113 19.7005 39.6376 22.2448 40.8928 22.2448C42.148 22.2448 42.5743 19.6719 42.5743 16.1453C42.5743 12.6187 42.148 10.0457 40.8928 10.0457Z" fill="#F5F5F5"/>
        <path d="M66.7355 25.7722L66.333 22.6497H63.2062L62.8036 25.7722H59.3218L62.7093 6.48975H66.8306L70.2181 25.7722H66.7363H66.7355ZM64.7696 10.3353L63.6087 18.8344H65.9297L64.7688 10.3353H64.7696Z" fill="#F5F5F5"/>
        <path d="M71.8274 25.7724V6.49072H76.2332C80.2831 6.49072 81.9892 10.7116 81.9892 16.1463C81.9892 21.5809 80.3077 25.7732 76.2569 25.7732H71.8274V25.7724ZM75.0899 22.2187H76.204C77.6148 22.2187 78.3824 20.1946 78.3824 16.1463C78.3824 11.8867 77.5903 10.0436 76.204 10.0436H75.0899V22.218V22.2187Z" fill="#F5F5F5"/>
        <path d="M88.9765 6.17236C92.6715 6.17236 94.33 10.3933 94.33 16.1461C94.33 21.8988 92.6723 26.1198 88.9765 26.1198C85.2808 26.1198 83.623 21.8988 83.623 16.1461C83.623 10.3933 85.2808 6.17236 88.9765 6.17236ZM88.9765 10.0457C87.7213 10.0457 87.295 12.5901 87.295 16.1453C87.295 19.7005 87.7213 22.2448 88.9765 22.2448C90.2317 22.2448 90.658 19.6719 90.658 16.1453C90.658 12.6187 90.2317 10.0457 88.9765 10.0457Z" fill="#F5F5F5"/>
        <path d="M96.7048 20.7138C97.3918 21.7254 98.4575 22.2456 99.3339 22.2456C100.21 22.2456 100.732 21.5226 100.732 20.569C100.732 19.3545 99.9029 18.6896 98.9076 17.9094C97.4631 16.7816 95.6627 15.4231 95.6627 11.8384C95.6627 8.91871 97.3205 6.17236 100.447 6.17236C101.916 6.17236 103.266 6.77922 104.19 7.82033L102.863 11.2029C102.2 10.3933 101.419 10.0465 100.637 10.0465C99.8078 10.0465 99.3102 10.6828 99.3102 11.6078C99.3102 12.6775 100.115 13.3711 101.111 14.1521C102.579 15.3372 104.379 16.7831 104.379 20.2516C104.379 23.7202 102.531 26.1205 99.6422 26.1205C97.7238 26.1205 96.3022 25.4556 95.2126 24.1258L96.7048 20.7145V20.7138Z" fill="#F5F5F5"/>
        <path d="M111.58 16.1461C111.58 10.3066 113.238 6.17236 116.956 6.17236C119.799 6.17236 120.746 8.94735 121.267 11.1449L118.421 12.426C118.161 10.9552 117.807 10.0612 116.956 10.0612C115.68 10.0612 115.006 12.5126 115.006 16.1461C115.006 19.7795 115.68 22.2309 116.956 22.2309C117.877 22.2309 118.279 21.0489 118.444 19.4915L121.29 20.7432C120.84 23.0266 119.892 26.1205 116.956 26.1205C113.237 26.1205 111.579 21.9577 111.579 16.1468L111.58 16.1461Z" fill="#F5F5F5"/>
        <path d="M127.675 6.17236C131.37 6.17236 133.028 10.3933 133.028 16.1461C133.028 21.8988 131.371 26.1198 127.675 26.1198C123.979 26.1198 122.321 21.8988 122.321 16.1461C122.321 10.3933 123.979 6.17236 127.675 6.17236ZM127.675 10.0457C126.42 10.0457 125.993 12.5901 125.993 16.1453C125.993 19.7005 126.42 22.2448 127.675 22.2448C128.93 22.2448 129.356 19.6719 129.356 16.1453C129.356 12.6187 128.93 10.0457 127.675 10.0457Z" fill="#F5F5F5"/>
        <path d="M57.6732 14.7512H52.9554C52.9086 14.7512 52.871 14.7891 52.871 14.8364V17.8722C52.871 17.9194 52.9086 17.9573 52.9554 17.9573H54.5265V22.7859C54.4283 22.8014 54.3976 22.8014 54.3072 22.8014C52.4854 22.8014 51.5223 20.6634 51.5223 16.619V15.6716C51.5223 13.6435 51.8045 12.0916 52.3604 11.0574C52.8802 10.0914 53.6278 9.60143 54.5832 9.60143C55.4573 9.60143 56.1796 9.9304 56.9954 10.425C57.0215 10.4405 57.0537 10.4413 57.0805 10.4258C57.1073 10.4103 57.1234 10.3824 57.1234 10.3515V6.81405C57.1234 6.78154 57.105 6.75136 57.0759 6.73742C56.3015 6.36201 55.4259 6.17236 54.4735 6.17236C52.5222 6.17236 50.889 7.01995 49.7488 8.62457C48.5603 10.2965 47.9324 12.782 47.9324 15.8117V16.4805C47.9324 19.7021 48.5481 22.1837 49.7626 23.8564C50.8376 25.3372 52.3619 26.1198 54.1691 26.1198C55.5056 26.1198 56.5139 25.7978 57.7069 25.2768C57.7376 25.2637 57.7576 25.2327 57.7576 25.1986V14.8364C57.7576 14.7891 57.72 14.7512 57.6732 14.7512Z" fill="#F5F5F5"/>
        <path d="M145.883 6.49072H142.564C142.528 6.49072 142.495 6.51394 142.484 6.548L140.279 13.1747L138.083 6.57742L138.073 6.548C138.062 6.51394 138.03 6.49072 137.994 6.49072H134.579V25.7724H137.982V14.9302L140.161 21.478H140.397L142.575 14.9302V25.7724H145.979V6.49072H145.883Z" fill="#F5F5F5"/>
        <path d="M65.5325 37.0347H67.5605L69.7488 43.3928V37.0347H71.8659V49.6076H69.9444L67.6495 42.9438V49.6076H65.5325V37.0347Z" fill="black"/>
        <path d="M76.457 46.3921V46.2845C76.457 44.7581 77.1686 43.6264 78.3609 42.5845C77.667 41.4529 77.3112 40.6091 77.3112 39.729V39.6029C77.3112 38.0942 78.3432 36.855 79.8913 36.855C81.4394 36.855 82.4001 37.9688 82.4001 39.5851V39.7112C82.4001 41.1479 81.7239 42.1542 80.6389 43.0884L81.7599 45.2434C81.8488 44.8479 81.9201 44.3091 82.0267 43.5552L83.699 43.8602C83.5388 45.279 83.2543 46.2853 82.8985 47.0934L83.9306 48.8714L82.3649 49.8413L81.7599 48.7274C81.1726 49.3924 80.5323 49.7871 79.4466 49.7871C77.8456 49.7871 76.4578 48.4403 76.4578 46.3921H76.457ZM80.8337 47.29L79.2679 44.1644C78.8056 44.7395 78.538 45.4934 78.538 46.122V46.2659C78.538 47.2358 79.0004 47.8829 79.7127 47.8829C80.175 47.8829 80.5308 47.6678 80.8337 47.29ZM79.784 41.6146C80.3353 41.0759 80.5492 40.4296 80.5492 39.7647V39.6207C80.5492 39.01 80.2647 38.6144 79.8553 38.6144C79.4458 38.6144 79.1614 39.01 79.1614 39.5487V39.7283C79.1614 40.2314 79.3569 40.788 79.784 41.6139V41.6146Z" fill="black"/>
        <path d="M59.7495 36.998H62.0628L64.429 49.6074H62.2583L61.8489 47.1111H59.8737L59.4827 49.6074H57.3833L59.7495 36.998ZM61.5284 45.1349L60.8697 40.986L60.1934 45.1349H61.5276H61.5284Z" fill="black"/>
        <path d="M50.0876 43.522V43.0838C50.0876 38.955 51.8251 36.8179 54.3224 36.8179C54.9918 36.8179 55.5531 36.9642 56.0055 37.1832V39.5031C55.4626 39.1741 54.9742 38.955 54.3953 38.955C53.1286 38.955 52.3319 40.2338 52.3319 42.9925V43.6133C52.3319 46.9564 53.3095 47.7235 54.2135 47.7235C54.2864 47.7235 54.304 47.7235 54.4129 47.705V44.4346H53.3272V42.4437H56.4218V49.2399C55.6259 49.5867 54.9742 49.7879 54.1238 49.7879C51.9164 49.7879 50.0884 47.9797 50.0884 43.522H50.0876Z" fill="black"/>
        <path d="M42.8279 37.0347H45.0699C47.2943 37.0347 48.9129 38.2197 48.9129 41.0404V41.2022C48.9129 42.837 48.2726 43.8789 47.4537 44.5074L49.126 49.6084H46.8127L45.4073 45.2257H44.9978V49.6084H42.8271V37.0354L42.8279 37.0347ZM45.1052 43.2488C46.0483 43.2488 46.7422 42.6922 46.7422 41.2192V41.0752C46.7422 39.4946 45.9946 39.0813 45.0523 39.0813H44.9986V43.248H45.1052V43.2488Z" fill="black"/>
        <path d="M34.6965 43.6442V42.9979C34.6965 38.8489 36.0307 36.855 38.0058 36.855C39.981 36.855 41.3152 38.8489 41.3152 42.9979V43.6442C41.3152 47.7931 39.981 49.7871 38.0058 49.7871C36.0307 49.7871 34.6965 47.7931 34.6965 43.6442ZM39.1092 43.6442V42.9979C39.1092 39.7647 38.6645 38.8668 38.0058 38.8668C37.3472 38.8668 36.9025 39.7647 36.9025 42.9979V43.6442C36.9025 46.8774 37.3472 47.7753 38.0058 47.7753C38.6645 47.7753 39.1092 46.8774 39.1092 43.6442Z" fill="black"/>
        <path d="M25.8184 37.0347H27.9714L29.5018 41.6326L31.0315 37.0347H33.1846V49.6076H31.1028V42.0095L29.5195 46.7692H29.4842L27.9009 42.0095V49.6076H25.8191V37.0347H25.8184Z" fill="black"/>
        <path d="M127.992 37.0347H130.02L132.209 43.3928V37.0347H134.326V49.6076H132.404L130.109 42.9438V49.6076H127.992V37.0347Z" fill="black"/>
        <path d="M122.209 36.998H124.523L126.889 49.6074H124.718L124.309 47.1111H122.333L121.942 49.6074H119.843L122.209 36.998ZM123.989 45.1349L123.33 40.986L122.654 45.1349H123.988H123.989Z" fill="black"/>
        <path d="M112.548 43.522V43.0838C112.548 38.955 114.286 36.8179 116.783 36.8179C117.452 36.8179 118.014 36.9642 118.466 37.1832V39.5031C117.923 39.1741 117.435 38.955 116.856 38.955C115.589 38.955 114.792 40.2338 114.792 42.9925V43.6133C114.792 46.9564 115.77 47.7235 116.674 47.7235C116.747 47.7235 116.764 47.7235 116.873 47.705V44.4346H115.788V42.4437H118.882V49.2399C118.086 49.5867 117.435 49.7879 116.584 49.7879C114.377 49.7879 112.549 47.9797 112.549 43.522H112.548Z" fill="black"/>
        <path d="M105.289 37.0347H107.531C109.755 37.0347 111.374 38.2197 111.374 41.0404V41.2022C111.374 42.837 110.733 43.8789 109.914 44.5074L111.587 49.6084H109.273L107.868 45.2257H107.459V49.6084H105.288V37.0354L105.289 37.0347ZM107.566 43.2488C108.509 43.2488 109.203 42.6922 109.203 41.2192V41.0752C109.203 39.4946 108.455 39.0813 107.513 39.0813H107.459V43.248H107.566V43.2488Z" fill="black"/>
        <path d="M97.1572 43.6442V42.9979C97.1572 38.8489 98.4914 36.855 100.467 36.855C102.442 36.855 103.776 38.8489 103.776 42.9979V43.6442C103.776 47.7931 102.442 49.7871 100.467 49.7871C98.4914 49.7871 97.1572 47.7931 97.1572 43.6442ZM101.57 43.6442V42.9979C101.57 39.7647 101.125 38.8668 100.467 38.8668C99.8079 38.8668 99.3632 39.7647 99.3632 42.9979V43.6442C99.3632 46.8774 99.8079 47.7753 100.467 47.7753C101.125 47.7753 101.57 46.8774 101.57 43.6442Z" fill="black"/>
        <path d="M88.2781 37.0347H90.4311L91.9616 41.6326L93.4912 37.0347H95.6443V49.6076H93.5625V42.0095L91.9792 46.7692H91.9439L90.3606 42.0095V49.6076H88.2788V37.0347H88.2781Z" fill="black"/>
        <path d="M137.26 37.4452C137.185 37.3144 137.083 37.2122 136.954 37.1371C136.824 37.0628 136.686 37.0249 136.538 37.0249C136.391 37.0249 136.249 37.0628 136.12 37.1379C135.991 37.213 135.89 37.3159 135.815 37.4468C135.742 37.5776 135.704 37.7177 135.704 37.8663C135.704 38.0149 135.74 38.1527 135.812 38.282C135.884 38.4112 135.985 38.5142 136.114 38.5916C136.244 38.669 136.385 38.7077 136.538 38.7077C136.692 38.7077 136.834 38.669 136.963 38.5916C137.093 38.5142 137.193 38.4105 137.264 38.2812C137.337 38.1519 137.372 38.0141 137.372 37.8671C137.372 37.72 137.334 37.5753 137.26 37.4452ZM137.123 38.2077C137.063 38.3137 136.981 38.3973 136.876 38.4585C136.771 38.5196 136.658 38.5506 136.537 38.5506C136.416 38.5506 136.304 38.5204 136.199 38.4592C136.094 38.3981 136.012 38.3153 135.951 38.2092C135.89 38.1039 135.86 37.9894 135.86 37.8671C135.86 37.7448 135.89 37.6325 135.95 37.5265C136.011 37.4204 136.093 37.3368 136.198 37.2757C136.302 37.2145 136.416 37.1836 136.537 37.1836C136.658 37.1836 136.769 37.2138 136.874 37.2749C136.979 37.3361 137.062 37.4189 137.123 37.5249C137.183 37.6302 137.214 37.7448 137.214 37.8671C137.214 37.9894 137.184 38.1016 137.123 38.2077Z" fill="black"/>
        <path d="M136.825 37.7012C136.825 37.6106 136.799 37.5433 136.745 37.4992C136.692 37.4551 136.61 37.4326 136.496 37.4326H136.249V38.3011H136.464V37.9806H136.508L136.625 38.3011H136.863L136.691 37.9218C136.781 37.8823 136.825 37.808 136.825 37.7012ZM136.581 37.8196C136.562 37.839 136.531 37.8483 136.486 37.8483H136.455V37.6021H136.484C136.53 37.6021 136.563 37.6114 136.581 37.6292C136.6 37.6478 136.61 37.6788 136.61 37.7229C136.61 37.767 136.6 37.7995 136.581 37.8189V37.8196Z" fill="black"/>
    </g>
    <defs>
        <clipPath id="clip0_9155_11269">
            <rect width="160" height="49" fill="white" transform="translate(0.0722656 0.84082)"/>
        </clipPath>
    </defs>
</svg>
